<svg id="visual" viewBox="0 0 900 900" width="900" height="900" xmlns="http://www.w3.org/2000/svg" xmlns:xlink="http://www.w3.org/1999/xlink" version="1.1"><g transform="translate(468.1984630973078 421.4352821747532)"><path d="M136.9 -204.3C170.3 -164.1 185.5 -114.7 230.9 -55.9C276.4 2.9 352.2 71 370 152.4C387.8 233.7 347.6 328.4 276.3 379.8C204.9 431.1 102.5 439 0 439C-102.5 439 -204.9 431.1 -283.1 382C-361.2 332.9 -415.1 242.6 -410.3 157C-405.5 71.4 -342.1 -9.6 -319 -110.8C-296 -212.1 -313.3 -333.6 -266.9 -369.5C-220.4 -405.4 -110.2 -355.7 -29.2 -315.4C51.7 -275.2 103.5 -244.4 136.9 -204.3" fill="#C4C7CB"></path></g></svg>